<svg width="920" height="620" viewBox="0 0 920 620" fill="none" xmlns="http://www.w3.org/2000/svg" role="img" aria-labelledby="title desc">
  <title id="title">Wanting rises while liking declines over time</title>
  <desc id="desc">A simple chart inspired by incentive sensitization diagrams, with a red wanting band rising over time and a blue liking curve declining below baseline.</desc>

  <rect width="920" height="620" fill="#FFFDF8"/>

  <rect x="120" y="54" width="700" height="462" fill="#F7EBD6"/>

  <g stroke="#FFF9F0" stroke-width="2">
    <line x1="120" y1="130" x2="820" y2="130"/>
    <line x1="120" y1="206" x2="820" y2="206"/>
    <line x1="120" y1="282" x2="820" y2="282"/>
    <line x1="120" y1="358" x2="820" y2="358"/>
    <line x1="120" y1="434" x2="820" y2="434"/>

    <line x1="190" y1="54" x2="190" y2="516"/>
    <line x1="260" y1="54" x2="260" y2="516"/>
    <line x1="330" y1="54" x2="330" y2="516"/>
    <line x1="400" y1="54" x2="400" y2="516"/>
    <line x1="470" y1="54" x2="470" y2="516"/>
    <line x1="540" y1="54" x2="540" y2="516"/>
    <line x1="610" y1="54" x2="610" y2="516"/>
    <line x1="680" y1="54" x2="680" y2="516"/>
    <line x1="750" y1="54" x2="750" y2="516"/>
  </g>

  <line x1="120" y1="516" x2="120" y2="34" stroke="#1F1A17" stroke-width="4"/>
  <line x1="120" y1="516" x2="846" y2="516" stroke="#1F1A17" stroke-width="4"/>

  <line x1="120" y1="434" x2="138" y2="434" stroke="#1F1A17" stroke-width="4"/>
  <line x1="120" y1="282" x2="138" y2="282" stroke="#1F1A17" stroke-width="4"/>
  <line x1="120" y1="130" x2="138" y2="130" stroke="#1F1A17" stroke-width="4"/>

  <line x1="170" y1="398" x2="620" y2="398" stroke="#1F1A17" stroke-width="6"/>

  <path d="M170 396C243 366 316 335 388 302C452 273 510 246 562 213C605 186 643 163 676 144C706 127 731 114 750 109" stroke="#E3264A" stroke-width="7" stroke-linecap="round"/>
  <path d="M170 396C226 396 279 389 327 375C374 361 416 339 451 310C486 282 514 248 534 210C555 171 584 146 620 136C658 126 701 119 750 109" stroke="#E3264A" stroke-width="7" stroke-linecap="round"/>

  <path d="M170 398C235 414 290 430 340 444C392 458 445 468 501 475C558 482 621 486 690 486C718 486 738 486 750 485" stroke="#2B92D9" stroke-width="7" stroke-linecap="round"/>

  <text x="646" y="101" fill="#1F1A17" font-family="Literata, Georgia, serif" font-size="30" font-weight="500">“Wanting”</text>
  <text x="652" y="468" fill="#1F1A17" font-family="Literata, Georgia, serif" font-size="30" font-weight="500">“Liking”</text>

  <path d="M135 483L164 408" stroke="#1F1A17" stroke-width="3"/>
  <text x="140" y="494" fill="#1F1A17" font-family="Literata, Georgia, serif" font-size="21" font-weight="500">first use</text>

  <text x="426" y="596" text-anchor="middle" fill="#1F1A17" font-family="Literata, Georgia, serif" font-size="34" font-weight="500">Time</text>
  <line x1="520" y1="582" x2="640" y2="582" stroke="#1F1A17" stroke-width="4"/>
  <path d="M640 582L612 565V599L640 582Z" fill="#1F1A17"/>

  <text x="52" y="292" transform="rotate(-90 52 292)" text-anchor="middle" fill="#1F1A17" font-family="Literata, Georgia, serif" font-size="34" font-weight="500">Relative effect</text>
</svg>
