<svg width="1600" height="920" viewBox="0 0 1600 920" fill="none" xmlns="http://www.w3.org/2000/svg">
  <defs>
    <marker id="arrowFlow" viewBox="0 0 8 8" markerWidth="8" markerHeight="8" refX="6.5" refY="4" orient="auto">
      <path d="M0 0L8 4L0 8Z" fill="#1F6FB3"/>
    </marker>
    <style>
      .small { font: 600 13px 'Manrope', ui-sans-serif, system-ui; fill: #6D6259; letter-spacing: .12em; text-transform: uppercase; }
      .title { font: 700 36px 'Manrope', ui-sans-serif, system-ui; fill: #17120F; }
      .label { font: 700 22px 'Manrope', ui-sans-serif, system-ui; fill: #17120F; }
      .body { font: 500 18px 'Manrope', ui-sans-serif, system-ui; fill: #4B4037; }
      .metric { font: 700 17px 'Manrope', ui-sans-serif, system-ui; fill: #7B4A12; }
      .tier { font: 700 20px 'Manrope', ui-sans-serif, system-ui; fill: #7B4A12; }
      .dots { font: 700 42px 'Manrope', ui-sans-serif, system-ui; fill: #355A79; letter-spacing: .2em; }
    </style>
  </defs>

  <rect width="1600" height="920" rx="28" fill="#F7F1E3"/>
  <text x="90" y="92" class="small">GPU memory hierarchy</text>
  <text x="90" y="144" class="title">Serving only gets fast when bytes stay on-chip</text>
  <text x="90" y="186" class="title">and stop falling back to HBM / GDDR</text>

  <rect x="110" y="214" width="1380" height="634" rx="34" fill="#FCF7ED" stroke="#D7C6AC" stroke-width="2"/>

  <text x="178" y="318" class="metric">~1-2 cycles</text>
  <text x="178" y="536" class="metric">~10-30 cycles</text>
  <text x="160" y="726" class="metric">~100s cycles</text>
  <text x="150" y="810" class="metric">~500+ cycles</text>

  <g transform="translate(300 246)">
    <rect x="0" y="0" width="250" height="424" fill="#8FB2D4" stroke="#9A6C2F" stroke-width="4"/>
    <text x="125" y="36" class="label" text-anchor="middle" fill="#234F76">SM</text>
    <rect x="16" y="48" width="218" height="46" fill="#FFE08A" stroke="#D2A03C" stroke-width="2"/>
    <text x="125" y="79" class="tier" text-anchor="middle">Control</text>
    <rect x="16" y="108" width="218" height="48" fill="#C99B62" stroke="#9A6C2F" stroke-width="2"/>
    <text x="125" y="140" class="tier" text-anchor="middle">Registers</text>

    <rect x="16" y="170" width="48" height="56" fill="#8ED06E" stroke="#355F2B" stroke-width="2"/>
    <rect x="72" y="170" width="48" height="56" fill="#8ED06E" stroke="#355F2B" stroke-width="2"/>
    <rect x="128" y="170" width="48" height="56" fill="#8ED06E" stroke="#355F2B" stroke-width="2"/>
    <rect x="184" y="170" width="48" height="56" fill="#8ED06E" stroke="#355F2B" stroke-width="2"/>
    <rect x="16" y="236" width="48" height="56" fill="#8ED06E" stroke="#355F2B" stroke-width="2"/>
    <rect x="72" y="236" width="48" height="56" fill="#8ED06E" stroke="#355F2B" stroke-width="2"/>
    <rect x="128" y="236" width="48" height="56" fill="#8ED06E" stroke="#355F2B" stroke-width="2"/>
    <rect x="184" y="236" width="48" height="56" fill="#8ED06E" stroke="#355F2B" stroke-width="2"/>
    <text x="40" y="205" class="body" text-anchor="middle">Core</text>
    <text x="96" y="205" class="body" text-anchor="middle">Core</text>
    <text x="152" y="205" class="body" text-anchor="middle">Core</text>
    <text x="208" y="205" class="body" text-anchor="middle">Core</text>
    <text x="40" y="271" class="body" text-anchor="middle">Core</text>
    <text x="96" y="271" class="body" text-anchor="middle">Core</text>
    <text x="152" y="271" class="body" text-anchor="middle">Core</text>
    <text x="208" y="271" class="body" text-anchor="middle">Core</text>

    <rect x="16" y="302" width="106" height="0" fill="none"/>
    <rect x="16" y="302" width="106" height="0" fill="none"/>
  </g>

  <g transform="translate(300 246)">
    <rect x="16" y="302" width="106" height="0" fill="none"/>
    <rect x="16" y="302" width="218" height="40" fill="#E7CFA9" stroke="#9A6C2F" stroke-width="2"/>
    <text x="125" y="329" class="tier" text-anchor="middle">Constant cache</text>
    <rect x="16" y="352" width="108" height="62" fill="#EFD9B7" stroke="#9A6C2F" stroke-width="2"/>
    <rect x="126" y="352" width="108" height="62" fill="#EFD9B7" stroke="#9A6C2F" stroke-width="2"/>
    <text x="70" y="384" class="tier" text-anchor="middle">Shared</text>
    <text x="70" y="406" class="tier" text-anchor="middle">memory</text>
    <text x="180" y="390" class="tier" text-anchor="middle">L1 cache</text>
  </g>

  <g transform="translate(650 246)">
    <rect x="0" y="0" width="250" height="424" fill="#8FB2D4" stroke="#9A6C2F" stroke-width="4"/>
    <text x="125" y="36" class="label" text-anchor="middle" fill="#234F76">SM</text>
    <rect x="16" y="48" width="218" height="46" fill="#FFE08A" stroke="#D2A03C" stroke-width="2"/>
    <text x="125" y="79" class="tier" text-anchor="middle">Control</text>
    <rect x="16" y="108" width="218" height="48" fill="#C99B62" stroke="#9A6C2F" stroke-width="2"/>
    <text x="125" y="140" class="tier" text-anchor="middle">Registers</text>

    <rect x="16" y="170" width="48" height="56" fill="#8ED06E" stroke="#355F2B" stroke-width="2"/>
    <rect x="72" y="170" width="48" height="56" fill="#8ED06E" stroke="#355F2B" stroke-width="2"/>
    <rect x="128" y="170" width="48" height="56" fill="#8ED06E" stroke="#355F2B" stroke-width="2"/>
    <rect x="184" y="170" width="48" height="56" fill="#8ED06E" stroke="#355F2B" stroke-width="2"/>
    <rect x="16" y="236" width="48" height="56" fill="#8ED06E" stroke="#355F2B" stroke-width="2"/>
    <rect x="72" y="236" width="48" height="56" fill="#8ED06E" stroke="#355F2B" stroke-width="2"/>
    <rect x="128" y="236" width="48" height="56" fill="#8ED06E" stroke="#355F2B" stroke-width="2"/>
    <rect x="184" y="236" width="48" height="56" fill="#8ED06E" stroke="#355F2B" stroke-width="2"/>
    <text x="40" y="205" class="body" text-anchor="middle">Core</text>
    <text x="96" y="205" class="body" text-anchor="middle">Core</text>
    <text x="152" y="205" class="body" text-anchor="middle">Core</text>
    <text x="208" y="205" class="body" text-anchor="middle">Core</text>
    <text x="40" y="271" class="body" text-anchor="middle">Core</text>
    <text x="96" y="271" class="body" text-anchor="middle">Core</text>
    <text x="152" y="271" class="body" text-anchor="middle">Core</text>
    <text x="208" y="271" class="body" text-anchor="middle">Core</text>

    <rect x="16" y="302" width="218" height="40" fill="#E7CFA9" stroke="#9A6C2F" stroke-width="2"/>
    <text x="125" y="329" class="tier" text-anchor="middle">Constant cache</text>
    <rect x="16" y="352" width="108" height="62" fill="#EFD9B7" stroke="#9A6C2F" stroke-width="2"/>
    <rect x="126" y="352" width="108" height="62" fill="#EFD9B7" stroke="#9A6C2F" stroke-width="2"/>
    <text x="70" y="384" class="tier" text-anchor="middle">Shared</text>
    <text x="70" y="406" class="tier" text-anchor="middle">memory</text>
    <text x="180" y="390" class="tier" text-anchor="middle">L1 cache</text>
  </g>

  <text x="945" y="446" class="dots">...</text>

  <g transform="translate(1060 246)">
    <rect x="0" y="0" width="250" height="424" fill="#8FB2D4" stroke="#9A6C2F" stroke-width="4"/>
    <text x="125" y="36" class="label" text-anchor="middle" fill="#234F76">SM</text>
    <rect x="16" y="48" width="218" height="46" fill="#FFE08A" stroke="#D2A03C" stroke-width="2"/>
    <text x="125" y="79" class="tier" text-anchor="middle">Control</text>
    <rect x="16" y="108" width="218" height="48" fill="#C99B62" stroke="#9A6C2F" stroke-width="2"/>
    <text x="125" y="140" class="tier" text-anchor="middle">Registers</text>

    <rect x="16" y="170" width="48" height="56" fill="#8ED06E" stroke="#355F2B" stroke-width="2"/>
    <rect x="72" y="170" width="48" height="56" fill="#8ED06E" stroke="#355F2B" stroke-width="2"/>
    <rect x="128" y="170" width="48" height="56" fill="#8ED06E" stroke="#355F2B" stroke-width="2"/>
    <rect x="184" y="170" width="48" height="56" fill="#8ED06E" stroke="#355F2B" stroke-width="2"/>
    <rect x="16" y="236" width="48" height="56" fill="#8ED06E" stroke="#355F2B" stroke-width="2"/>
    <rect x="72" y="236" width="48" height="56" fill="#8ED06E" stroke="#355F2B" stroke-width="2"/>
    <rect x="128" y="236" width="48" height="56" fill="#8ED06E" stroke="#355F2B" stroke-width="2"/>
    <rect x="184" y="236" width="48" height="56" fill="#8ED06E" stroke="#355F2B" stroke-width="2"/>
    <text x="40" y="205" class="body" text-anchor="middle">Core</text>
    <text x="96" y="205" class="body" text-anchor="middle">Core</text>
    <text x="152" y="205" class="body" text-anchor="middle">Core</text>
    <text x="208" y="205" class="body" text-anchor="middle">Core</text>
    <text x="40" y="271" class="body" text-anchor="middle">Core</text>
    <text x="96" y="271" class="body" text-anchor="middle">Core</text>
    <text x="152" y="271" class="body" text-anchor="middle">Core</text>
    <text x="208" y="271" class="body" text-anchor="middle">Core</text>

    <rect x="16" y="302" width="218" height="40" fill="#E7CFA9" stroke="#9A6C2F" stroke-width="2"/>
    <text x="125" y="329" class="tier" text-anchor="middle">Constant cache</text>
    <rect x="16" y="352" width="108" height="62" fill="#EFD9B7" stroke="#9A6C2F" stroke-width="2"/>
    <rect x="126" y="352" width="108" height="62" fill="#EFD9B7" stroke="#9A6C2F" stroke-width="2"/>
    <text x="70" y="384" class="tier" text-anchor="middle">Shared</text>
    <text x="70" y="406" class="tier" text-anchor="middle">memory</text>
    <text x="180" y="390" class="tier" text-anchor="middle">L1 cache</text>
  </g>

  <rect x="300" y="690" width="1010" height="58" fill="#F0E2C9" stroke="#9A6C2F" stroke-width="3"/>
  <text x="805" y="727" class="tier" text-anchor="middle">L2 cache</text>
  <text x="1268" y="727" class="label" fill="#1F6FB3" text-anchor="end">50-128 MB</text>

  <rect x="300" y="772" width="1010" height="60" fill="#F5ECE0" stroke="#9A6C2F" stroke-width="3"/>
  <text x="520" y="810" class="tier">HBM / GDDR</text>
  <text x="700" y="810" class="body">weights, KV cache, activation I/O</text>
  <text x="1268" y="810" class="label" fill="#1F6FB3" text-anchor="end">1.8 to 3.35 TB/s</text>

  <line x1="720" y1="772" x2="720" y2="748" stroke="#1F6FB3" stroke-width="4" marker-end="url(#arrowFlow)"/>
  <line x1="780" y1="772" x2="780" y2="748" stroke="#1F6FB3" stroke-width="4" marker-end="url(#arrowFlow)"/>
  <line x1="840" y1="772" x2="840" y2="748" stroke="#1F6FB3" stroke-width="4" marker-end="url(#arrowFlow)"/>
  <line x1="900" y1="772" x2="900" y2="748" stroke="#1F6FB3" stroke-width="4" marker-end="url(#arrowFlow)"/>

  <line x1="425" y1="690" x2="425" y2="656" stroke="#1F6FB3" stroke-width="4" marker-end="url(#arrowFlow)"/>
  <line x1="795" y1="690" x2="795" y2="656" stroke="#1F6FB3" stroke-width="4" marker-end="url(#arrowFlow)"/>
  <line x1="1165" y1="690" x2="1165" y2="656" stroke="#1F6FB3" stroke-width="4" marker-end="url(#arrowFlow)"/>

  <text x="90" y="882" class="body">Prefill benefits more from cache reuse. Decode hurts when weights and KV misses keep falling back to off-chip memory.</text>
</svg>
